<svg xmlns="http://www.w3.org/2000/svg" viewBox="0 0 64 64" role="img" aria-labelledby="title desc">
<title id="title">For-hire vehicle</title>
<desc id="desc">Duotone editorial for-hire vehicle glyph in teal and coral.</desc>
<g fill="none" stroke-linecap="round" stroke-linejoin="round">
  <path d="M17 20.5 21.5 14h21L47 20.5" fill="#83C5BE" stroke="#004F57" stroke-width="3"/>
  <path d="M13 25.5c1.4-4 4.8-6.5 9-6.5h20c4.2 0 7.6 2.5 9 6.5l3 9.2V48c0 3-2 5-5 5H15c-3 0-5-2-5-5V34.7l3-9.2Z" fill="#006D77" stroke="#004F57" stroke-width="3"/>
  <path d="M20 21h24l4 11H16l4-11Z" fill="#EDF6F9" opacity="0.92"/>
  <circle cx="40.5" cy="25" r="3.3" fill="#004F57"/>
  <path d="M36.5 31.2c1.2-2.5 3.1-3.8 5-3.8 2 0 3.8 1.3 5 3.8" fill="#83C5BE" stroke="#004F57" stroke-width="1.7"/>
  <path d="M18 39h8M38 39h8" stroke="#E29578" stroke-width="4"/>
  <path d="M25.5 44.5h13l-3 4h-7l-3-4Z" fill="#004F57"/>
  <rect x="14" y="51" width="8" height="6" rx="2" fill="#004F57"/>
  <rect x="42" y="51" width="8" height="6" rx="2" fill="#004F57"/>
</g>
</svg>